{"title":"Geordie.Shore.S08E06 WEB-DL","uid":10912789,"size":429968724,"categoryP":"video","categoryS":"tv_shows","magnet":"?xt=urn:btih:a9a7697b411927b3877607c8e31ee5a3981447dc&amp;dn=Geordie.Shore.S08E06+WEB-DL&amp;tr=udp%3A%2F%2Ftracker.openbittorrent.com%3A80&amp;tr=udp%3A%2F%2Fopen.demonii.com%3A1337&amp;tr=udp%3A%2F%2Ftracker.coppersurfer.tk%3A6969&amp;tr=udp%3A%2F%2Fexodus.desync.com%3A6969","seeders":2,"leechers":0,"uploader":"jmanwf","files":-1,"time":1409276665,"description":"Gary and Ricci rock the house shocking Vicky and Charlotte\n\n\nEpisode number: 8x6\n\n\nAirdate: Tuesday August 26th, 2014\n\n\n\n\nFormat                                   : MPEG-4\nFormat profile                           : Base Media / Version 2\nCodec ID                                 : mp42\nFile size                                : 410 MiB\nDuration                                 : 42mn 13s\nOverall bit rate mode                    : Variable\nOverall bit rate                         : 1 357 Kbps\nEncoded date                             : UTC 2014-08-28 04:43:10\nTagged date                              : UTC 2014-08-28 05:15:10\nWriting application                      : HandBrake 0.9.9 2013052900\n\nVideo\nID                                       : 1\nFormat                                   : AVC\nFormat/Info                              : Advanced Video Codec\nFormat profile                           : &lt;a class=&quot;__cf_email__&quot; href=&quot;/cdn-cgi/l/email-protection&quot; data-cfemail=&quot;abe6cac2c5ebe79f859b&quot;&gt;[email&amp;#160;protected]&lt;/a&gt;&lt;script cf-hash='f9e31' type=&quot;text/javascript&quot;&gt;\n/* &lt;![CDATA[ */!function(){try{var t=&quot;currentScript&quot;in document?document.currentScript:function(){for(var t=document.getElementsByTagName(&quot;script&quot;),e=t.length;e--;)if(t[e].getAttribute(&quot;cf-hash&quot;))return t[e]}();if(t&amp;&amp;t.previousSibling){var e,r,n,i,c=t.previousSibling,a=c.getAttribute(&quot;data-cfemail&quot;);if(a){for(e=&quot;&quot;,r=parseInt(a.substr(0,2),16),n=2;a.length-n;n+=2)i=parseInt(a.substr(n,2),16)^r,e+=String.fromCharCode(i);e=document.createTextNode(e),c.parentNode.replaceChild(e,c)}}}catch(u){}}();/* ]]&gt; */&lt;/script&gt;\nFormat settings, CABAC                   : Yes\nFormat settings, ReFrames                : 4 frames\nCodec ID                                 : avc1\nCodec ID/Info                            : Advanced Video Coding\nDuration                                 : 42mn 13s\nBit rate                                 : 1 193 Kbps\nWidth                                    : 852 pixels\nHeight                                   : 480 pixels\nDisplay aspect ratio                     : 16:9\nFrame rate mode                          : Variable\nFrame rate                               : 25.000 fps\nMinimum frame rate                       : 12.502 fps\nMaximum frame rate                       : 25.007 fps\nColor space                              : YUV\nChroma subsampling                       : 4:2:0\nBit depth                                : 8 bits\nScan type                                : Progressive\nBits/(Pixel*Frame)                       : 0.117\nStream size                              : 360 MiB (88%)\n\nTagged date                              : UTC 2014-08-28 05:15:10\nColor primaries                          : BT.709\nTransfer characteristics                 : BT.709\nMatrix coefficients                      : BT.709\n\nAudio\nID                                       : 2\nFormat                                   : AAC\nFormat/Info                              : Advanced Audio Codec\nFormat profile                           : LC\nCodec ID                                 : 40\nDuration                                 : 42mn 13s\nBit rate mode                            : Variable\nBit rate                                 : 160 Kbps\nMaximum bit rate                         : 309 Kbps\nChannel(s)                               : 2 channels\nChannel positions                        : Front: L R\nSampling rate                            : 48.0 KHz\nCompression mode                         : Lossy\nStream size                              : 48.3 MiB (12%)\nEncoded date                             : UTC 2014-08-28 04:43:10\nTagged date                              : UTC 2014-08-28 05:15:10\n\n","torrent":{"xt":"urn:btih:a9a7697b411927b3877607c8e31ee5a3981447dc","amp;dn":"Geordie.Shore.S08E06+WEB-DL","amp;tr":["udp%3A%2F%2Ftracker.openbittorrent.com%3A80","udp%3A%2F%2Fopen.demonii.com%3A1337","udp%3A%2F%2Ftracker.coppersurfer.tk%3A6969","udp%3A%2F%2Fexodus.desync.com%3A6969"],"infoHash":"a9a7697b411927b3877607c8e31ee5a3981447dc","infoHashBuffer":{"type":"Buffer","data":[169,167,105,123,65,25,39,179,135,118,7,200,227,30,229,163,152,20,71,220]},"announce":[],"urlList":[]}}